<svg xmlns="http://www.w3.org/2000/svg" width="24" height="24" viewBox="0 0 24 24"><g fill="none" stroke="#464645" stroke-linecap="round" stroke-linejoin="round" stroke-miterlimit="10"><path d="M.5 6.5h23v12H.5z"/><path d="M5.5 15.5v-6h.938C8 9.5 8.5 11.068 8.5 12.5s-.5 3-2.062 3H5.5z"/><path d="M19 10.5c-.5-1-1.5-1-1.5-1-1.2 0-2 1.535-2 3 0 1.464.8 3 2 3 0 0 1 0 1.5-1"/><path d="M13.5 12.5c0 1.462-.286 3-1.534 3-1.25 0-1.466-1.538-1.466-3 0-1.465.217-3 1.466-3 1.248 0 1.534 1.535 1.534 3z"/></g></svg>