<svg id="Layer_1" data-name="Layer 1" xmlns="http://www.w3.org/2000/svg" xmlns:xlink="http://www.w3.org/1999/xlink" viewBox="0 0 42.61 63.86"><defs><style>.cls-1{fill:none;}.cls-2{clip-path:url(#clip-path);}.cls-3{fill:#fff;}</style><clipPath id="clip-path" transform="translate(-13.19 0.02)"><rect class="cls-1" x="13.19" y="-0.02" width="42.61" height="63.86"/></clipPath></defs><title>Better Better_counter_5</title><g class="cls-2"><path class="cls-3" d="M24.74,34.46l1.21-1.13A10.82,10.82,0,0,1,33.17,31q4.85,0,7.49,2.86t2.64,8.22q0,5.58-2.29,8.63a7.68,7.68,0,0,1-6.53,3.05,8.71,8.71,0,0,1-6.17-2.19,9.24,9.24,0,0,1-2.75-6.12H13.19a17.73,17.73,0,0,0,3,9.56,18.79,18.79,0,0,0,7.72,6.51,24.46,24.46,0,0,0,10.6,2.31,23,23,0,0,0,11.33-2.66,18.17,18.17,0,0,0,7.38-7.48A22.84,22.84,0,0,0,55.8,42.76q0-10-5.11-15.62t-14.1-5.58a19.82,19.82,0,0,0-9.47,2.38L28.67,10.4h25V0H18.42L14.79,32Z" transform="translate(-13.19 0.02)"/></g></svg>