<svg id="Layer_1" data-name="Layer 1" xmlns="http://www.w3.org/2000/svg" xmlns:xlink="http://www.w3.org/1999/xlink" viewBox="0 0 192.54 207.02"><defs><style>.cls-1,.cls-3,.cls-5{fill:none;}.cls-2{clip-path:url(#clip-path);}.cls-3,.cls-5{stroke:#fff;stroke-width:3.47px;}.cls-3{stroke-miterlimit:10;}.cls-4{fill:#fff;}.cls-5{stroke-linecap:round;stroke-linejoin:round;}</style><clipPath id="clip-path" transform="translate(-0.23 -0.24)"><rect class="cls-1" x="0.23" y="0.25" width="192.53" height="207"/></clipPath></defs><title>Better Better_Homebuyers_circle image 2</title><g class="cls-2"><path class="cls-3" d="M80.53,194.38v6.3s-.77,4.84,4.84,4.84h20.14c5.61,0,4.85-4.84,4.85-4.84v-6.3M123,181.31H68.23m7.16,12.93c-8.48.17-6.92-7.78-6.92-7.78V143.28c-.17-5.36-3.19-7.77-3.19-7.77a51.46,51.46,0,1,1,61.21,0s-3,2.41-3.19,7.77v43.18s1.56,8-6.92,7.78ZM123,167.78H68.23" transform="translate(-0.23 -0.24)"/><path class="cls-4" d="M95.92,76.61a3.53,3.53,0,0,0-2.45,1l-3.19,3.07A3.54,3.54,0,0,0,87,78.52H80.65a3.54,3.54,0,0,0-3.54,3.54V92.48l-7.43,6.85a3.54,3.54,0,0,0,2.4,6.15h4.77v14.7a3.54,3.54,0,0,0,3.54,3.54H87v42.13a3.54,3.54,0,0,0,3.52,3.54l10.49.06h0a3.54,3.54,0,0,0,3.54-3.54V123.79h6.62a3.54,3.54,0,0,0,3.54-3.54v-15h3.44a3.54,3.54,0,0,0,2.46-6.08L98.38,77.61a3.53,3.53,0,0,0-2.46-1m0,3.54,22.2,21.55h-7v18.56H101v45.66l-10.49-.06V120.18H80.38V101.94H72.07L80.65,94v-12H87v6.66Z" transform="translate(-0.23 -0.24)"/><path class="cls-5" d="M191,95.5H172.49m5.88-46.85-16.06,9.29M144.05,14.42l-9.27,16.1M2,95.5H20.51M14.62,48.65l16.06,9.29M48.95,14.42l9.27,16.1M95.75,2V20.57" transform="translate(-0.23 -0.24)"/></g></svg>