<svg xmlns="http://www.w3.org/2000/svg" viewBox="0 0 269 95"><defs><style>.a{fill:#fff;}.b{fill:#fff;}</style></defs>
<title>Artboard 1</title>
<path class="a" d="M.46,24H24.21V29.7H7V39.79H23.22V45.3H7V60.78H.46Z"/>
<path class="a" d="M26.81,35.84h6V40h.1a9.1,9.1,0,0,1,2.91-3.53,7.26,7.26,0,0,1,4.37-1.35l.78,0a2.93,2.93,0,0,1,.73.13V41a8.75,8.75,0,0,0-1.07-.21,7.46,7.46,0,0,0-.86-.05,6.62,6.62,0,0,0-3.43.78,6.23,6.23,0,0,0-2,1.87,6.67,6.67,0,0,0-1,2.23A8.65,8.65,0,0,0,33,47.43V60.78H26.81Z"/>
<path class="a" d="M67.19,48.62v.83a6.72,6.72,0,0,1-.05.83h-19a6.16,6.16,0,0,0,.7,2.47,6.24,6.24,0,0,0,1.58,1.92,7.87,7.87,0,0,0,2.23,1.27,7.33,7.33,0,0,0,2.6.47,8.32,8.32,0,0,0,3.95-.86,7.41,7.41,0,0,0,2.65-2.36L66,56.52q-3.69,5-10.71,5A15.23,15.23,0,0,1,50,60.6,12.61,12.61,0,0,1,45.75,58a11.59,11.59,0,0,1-2.81-4.08,14.05,14.05,0,0,1-1-5.48,14.31,14.31,0,0,1,1-5.48,12.21,12.21,0,0,1,7-6.91,14,14,0,0,1,5.22-1,13.17,13.17,0,0,1,4.81.86,10.43,10.43,0,0,1,3.82,2.55,11.83,11.83,0,0,1,2.52,4.21A17.4,17.4,0,0,1,67.19,48.62ZM61,45.82a7.69,7.69,0,0,0-.34-2.29,5.1,5.1,0,0,0-2.91-3.25,6.45,6.45,0,0,0-2.62-.49,7,7,0,0,0-4.76,1.69,6.16,6.16,0,0,0-2.16,4.34Z"/>
<path class="a" d="M96.76,60.78H90.84V57h-.1a8.49,8.49,0,0,1-3.61,3.33,11.05,11.05,0,0,1-5,1.14A11.87,11.87,0,0,1,77,60.45a11.74,11.74,0,0,1-3.85-2.86,12.68,12.68,0,0,1-2.44-4.21,15.35,15.35,0,0,1-.86-5.17,14.7,14.7,0,0,1,.88-5.15,12.56,12.56,0,0,1,2.49-4.16A11.64,11.64,0,0,1,82,35.11a10.89,10.89,0,0,1,5.43,1.35,9.2,9.2,0,0,1,1.74,1.25,9.94,9.94,0,0,1,1.2,1.3h.16V24.1h6.24ZM76.23,48.21a10,10,0,0,0,.44,2.91A8,8,0,0,0,78,53.71a6.92,6.92,0,0,0,2.23,1.87,7.16,7.16,0,0,0,6.24,0,7.5,7.5,0,0,0,2.31-1.85,8.05,8.05,0,0,0,1.46-2.57,8.79,8.79,0,0,0,.49-2.88,9,9,0,0,0-.49-2.91,8,8,0,0,0-1.46-2.6,7.87,7.87,0,0,0-2.31-1.87,6.37,6.37,0,0,0-3.07-.73,6.79,6.79,0,0,0-3.17.7A6.65,6.65,0,0,0,78,42.75a8,8,0,0,0-1.33,2.57A9.73,9.73,0,0,0,76.23,48.21Z"/>
<path class="a" d="M126.59,60.78h-5.93V57h-.1A8.49,8.49,0,0,1,117,60.37a11.05,11.05,0,0,1-5,1.14,11.87,11.87,0,0,1-5.12-1.07A11.74,11.74,0,0,1,103,57.59a12.68,12.68,0,0,1-2.44-4.21,15.35,15.35,0,0,1-.86-5.17,14.7,14.7,0,0,1,.88-5.15,12.56,12.56,0,0,1,2.49-4.16,11.64,11.64,0,0,1,8.73-3.79,10.89,10.89,0,0,1,5.43,1.35A9.2,9.2,0,0,1,119,37.71a9.94,9.94,0,0,1,1.2,1.3h.16V24.1h6.24ZM106.06,48.21a10,10,0,0,0,.44,2.91,8,8,0,0,0,1.33,2.6,6.92,6.92,0,0,0,2.23,1.87,7.16,7.16,0,0,0,6.24,0,7.5,7.5,0,0,0,2.31-1.85,8.05,8.05,0,0,0,1.46-2.57,8.79,8.79,0,0,0,.49-2.88,9,9,0,0,0-.49-2.91,8,8,0,0,0-1.46-2.6,7.87,7.87,0,0,0-2.31-1.87,6.37,6.37,0,0,0-3.07-.73,6.79,6.79,0,0,0-3.17.7,6.65,6.65,0,0,0-2.23,1.85,8,8,0,0,0-1.33,2.57A9.73,9.73,0,0,0,106.06,48.21Z"/>
<path class="a" d="M131.1,27.36a3.59,3.59,0,0,1,1.12-2.62A3.84,3.84,0,0,1,135,23.62a4.12,4.12,0,0,1,2.88,1.07,3.65,3.65,0,0,1,0,5.35A4.12,4.12,0,0,1,135,31.11,3.83,3.83,0,0,1,132.21,30,3.59,3.59,0,0,1,131.1,27.36Zm.88,8.47h6.24V60.78H132Z"/>
<path class="a" d="M167.3,48.62v.83a6.72,6.72,0,0,1-.05.83h-19a6.17,6.17,0,0,0,.7,2.47,6.28,6.28,0,0,0,1.59,1.92,7.87,7.87,0,0,0,2.23,1.27,7.34,7.34,0,0,0,2.6.47,8.32,8.32,0,0,0,3.95-.86A7.4,7.4,0,0,0,162,53.2l4.16,3.33q-3.69,5-10.71,5a15.23,15.23,0,0,1-5.35-.91A12.61,12.61,0,0,1,145.86,58a11.6,11.6,0,0,1-2.81-4.08,14.07,14.07,0,0,1-1-5.48,14.32,14.32,0,0,1,1-5.48,12.21,12.21,0,0,1,7-6.91,14,14,0,0,1,5.22-1,13.17,13.17,0,0,1,4.81.86,10.43,10.43,0,0,1,3.82,2.55,11.83,11.83,0,0,1,2.52,4.21A17.38,17.38,0,0,1,167.3,48.62Zm-6.24-2.81a7.69,7.69,0,0,0-.34-2.29,5.1,5.1,0,0,0-2.91-3.25,6.45,6.45,0,0,0-2.62-.49,7,7,0,0,0-4.76,1.69,6.16,6.16,0,0,0-2.16,4.34Z"/>
<path class="b" d="M175.73,24H186l9.56,26.14h.16L205.14,24h10.29v36.8h-6.5V31.21h-.1L197.66,60.78h-4.57l-11-29.57H182V60.78h-6.24Z"/>
<path class="b" d="M236.41,57.61h-.16a7,7,0,0,1-3,2.73,10.23,10.23,0,0,1-4.73,1.07,13.55,13.55,0,0,1-3.14-.39,9.34,9.34,0,0,1-3-1.3,7.53,7.53,0,0,1-2.29-2.39,6.88,6.88,0,0,1-.91-3.66,6.21,6.21,0,0,1,1.58-4.47,10.26,10.26,0,0,1,4.08-2.55,23,23,0,0,1,5.54-1.17q3-.29,6-.29v-.62a3.85,3.85,0,0,0-1.69-3.46,7.13,7.13,0,0,0-4-1.12,9,9,0,0,0-3.79.83,10.2,10.2,0,0,0-3,2l-3.22-3.79a14.08,14.08,0,0,1,4.91-3,16.75,16.75,0,0,1,5.64-1,13.86,13.86,0,0,1,5.48.94,8.94,8.94,0,0,1,3.4,2.44,8.75,8.75,0,0,1,1.74,3.38,14.6,14.6,0,0,1,.49,3.74V60.78h-5.82Zm-.1-8.21h-1.4q-1.51,0-3.17.13a13.82,13.82,0,0,0-3.07.57,6.56,6.56,0,0,0-2.34,1.25,2.76,2.76,0,0,0-.94,2.21,2.65,2.65,0,0,0,.39,1.48,3,3,0,0,0,1,1,4.52,4.52,0,0,0,1.4.52,7.94,7.94,0,0,0,1.56.16A6.5,6.5,0,0,0,234.64,55a6.43,6.43,0,0,0,1.66-4.68Z"/>
<path class="b" d="M264.25,42.75A5.5,5.5,0,0,0,262.06,41a6.75,6.75,0,0,0-3-.7,6.25,6.25,0,0,0-3,.7,6.55,6.55,0,0,0-2.16,1.84,7.94,7.94,0,0,0-1.27,2.57,10.25,10.25,0,0,0-.42,2.88,9.72,9.72,0,0,0,.44,2.88A8,8,0,0,0,254,53.77a6.72,6.72,0,0,0,2.21,1.85,6.51,6.51,0,0,0,3.09.7,7.9,7.9,0,0,0,2.91-.57,5.55,5.55,0,0,0,2.34-1.66l3.9,3.95a10.33,10.33,0,0,1-4,2.57,14.72,14.72,0,0,1-5.22.91,15.38,15.38,0,0,1-5.22-.88,12.19,12.19,0,0,1-7.22-6.76,13.78,13.78,0,0,1-1.07-5.56,13.51,13.51,0,0,1,1.07-5.46,12.5,12.5,0,0,1,2.88-4.16A12.88,12.88,0,0,1,253.93,36a14.45,14.45,0,0,1,10.5.1A10.08,10.08,0,0,1,268.51,39Z"/>
<polygon class="b" points="81.64 24.1 81.64 16.32 57.39 0.54 33.14 16.32 33.14 24.1 57.39 8.26 81.64 24.1"/>
<polygon class="b" points="74.99 10 74.99 0.54 68.34 0.54 68.34 5.67 74.99 10"/>
</svg>