<svg id="Layer_1" data-name="Layer 1" xmlns="http://www.w3.org/2000/svg" viewBox="0 0 232 81.33"><defs><style>.cls-1{fill:#00a6e2;}.cls-2{fill:#88bd45;}.cls-3{fill:#777874;}</style></defs><title>FM New Logo_tagline_rgb</title><path id="_Compound_Path_" data-name="&lt;Compound Path&gt;" class="cls-1" d="M189.65,375.32h20.56v4.95H195.32V389h14v4.77h-14v13.4h-5.67Z" transform="translate(-189.65 -355.03)"/><path id="_Compound_Path_2" data-name="&lt;Compound Path&gt;" class="cls-1" d="M212.46,385.58h5.17v3.6h.09a7.87,7.87,0,0,1,2.52-3.06,6.28,6.28,0,0,1,3.78-1.17l.68,0a2.53,2.53,0,0,1,.63.11V390a7.58,7.58,0,0,0-.92-.18,6.46,6.46,0,0,0-.74,0,5.73,5.73,0,0,0-3,.67,5.39,5.39,0,0,0-1.75,1.62,5.78,5.78,0,0,0-.85,1.93,7.49,7.49,0,0,0-.22,1.57v11.56h-5.4Z" transform="translate(-189.65 -355.03)"/><path id="_Compound_Path_3" data-name="&lt;Compound Path&gt;" class="cls-1" d="M247.41,396.64v.72a5.82,5.82,0,0,1,0,.72H230.94a5.33,5.33,0,0,0,.61,2.14,5.4,5.4,0,0,0,1.37,1.66,6.81,6.81,0,0,0,1.93,1.1,6.35,6.35,0,0,0,2.25.4,7.2,7.2,0,0,0,3.42-.74,6.41,6.41,0,0,0,2.29-2l3.6,2.88q-3.19,4.32-9.27,4.32a13.18,13.18,0,0,1-4.63-.79,10.92,10.92,0,0,1-3.67-2.23,10,10,0,0,1-2.43-3.53,12.16,12.16,0,0,1-.88-4.75,12.38,12.38,0,0,1,.88-4.75,10.56,10.56,0,0,1,6-6,12.12,12.12,0,0,1,4.52-.83,11.4,11.4,0,0,1,4.16.74,9,9,0,0,1,3.31,2.2,10.24,10.24,0,0,1,2.18,3.64A15.06,15.06,0,0,1,247.41,396.64Zm-5.4-2.43a6.65,6.65,0,0,0-.29-2,4.41,4.41,0,0,0-2.52-2.81,5.58,5.58,0,0,0-2.27-.43,6.07,6.07,0,0,0-4.12,1.46,5.33,5.33,0,0,0-1.87,3.76Z" transform="translate(-189.65 -355.03)"/><path id="_Compound_Path_4" data-name="&lt;Compound Path&gt;" class="cls-1" d="M273,407.17h-5.13v-3.24h-.09a7.35,7.35,0,0,1-3.13,2.88,9.57,9.57,0,0,1-4.3,1,10.27,10.27,0,0,1-4.43-.92,10.16,10.16,0,0,1-3.33-2.47,11,11,0,0,1-2.11-3.64,13.28,13.28,0,0,1-.74-4.48,12.73,12.73,0,0,1,.77-4.45,10.87,10.87,0,0,1,2.16-3.6,10.07,10.07,0,0,1,7.56-3.28,9.42,9.42,0,0,1,4.7,1.17,8,8,0,0,1,1.51,1.08,8.6,8.6,0,0,1,1,1.12h.14v-12.9H273Zm-17.77-10.89a8.63,8.63,0,0,0,.38,2.52,6.91,6.91,0,0,0,1.15,2.25,6,6,0,0,0,1.93,1.62,6.2,6.2,0,0,0,5.4,0,6.5,6.5,0,0,0,2-1.6,7,7,0,0,0,1.26-2.23,7.61,7.61,0,0,0,.43-2.5,7.81,7.81,0,0,0-.43-2.52,6.94,6.94,0,0,0-1.26-2.25,6.81,6.81,0,0,0-2-1.62,5.51,5.51,0,0,0-2.65-.63,5.88,5.88,0,0,0-2.74.61,5.76,5.76,0,0,0-1.93,1.6,7,7,0,0,0-1.15,2.23A8.42,8.42,0,0,0,255.23,396.28Z" transform="translate(-189.65 -355.03)"/><path id="_Compound_Path_5" data-name="&lt;Compound Path&gt;" class="cls-1" d="M298.82,407.17h-5.13v-3.24h-.09a7.35,7.35,0,0,1-3.13,2.88,9.57,9.57,0,0,1-4.3,1,10.27,10.27,0,0,1-4.43-.92,10.16,10.16,0,0,1-3.33-2.47,11,11,0,0,1-2.11-3.64,13.28,13.28,0,0,1-.74-4.48,12.73,12.73,0,0,1,.77-4.45,10.87,10.87,0,0,1,2.16-3.6,10.07,10.07,0,0,1,7.56-3.28,9.42,9.42,0,0,1,4.7,1.17,8,8,0,0,1,1.51,1.08,8.6,8.6,0,0,1,1,1.12h.14v-12.9h5.4Zm-17.77-10.89a8.63,8.63,0,0,0,.38,2.52,6.91,6.91,0,0,0,1.15,2.25,6,6,0,0,0,1.93,1.62,6.2,6.2,0,0,0,5.4,0,6.5,6.5,0,0,0,2-1.6,7,7,0,0,0,1.26-2.23,7.61,7.61,0,0,0,.43-2.5,7.81,7.81,0,0,0-.43-2.52,6.94,6.94,0,0,0-1.26-2.25,6.81,6.81,0,0,0-2-1.62,5.51,5.51,0,0,0-2.65-.63,5.88,5.88,0,0,0-2.74.61,5.76,5.76,0,0,0-1.93,1.6,7,7,0,0,0-1.15,2.23A8.42,8.42,0,0,0,281.05,396.28Z" transform="translate(-189.65 -355.03)"/><path id="_Compound_Path_6" data-name="&lt;Compound Path&gt;" class="cls-1" d="M302.72,378.24a3.11,3.11,0,0,1,1-2.27,3.32,3.32,0,0,1,2.45-1,3.57,3.57,0,0,1,2.5.92,3.16,3.16,0,0,1,0,4.63,3.57,3.57,0,0,1-2.5.92,3.32,3.32,0,0,1-2.45-1A3.11,3.11,0,0,1,302.72,378.24Zm.76,7.33h5.4v21.59h-5.4Z" transform="translate(-189.65 -355.03)"/><path id="_Compound_Path_7" data-name="&lt;Compound Path&gt;" class="cls-1" d="M334.05,396.64v.72a5.82,5.82,0,0,1,0,.72H317.59a5.34,5.34,0,0,0,.61,2.14,5.43,5.43,0,0,0,1.37,1.66,6.81,6.81,0,0,0,1.93,1.1,6.35,6.35,0,0,0,2.25.4,7.2,7.2,0,0,0,3.42-.74,6.41,6.41,0,0,0,2.29-2l3.6,2.88q-3.19,4.32-9.27,4.32a13.19,13.19,0,0,1-4.63-.79,10.92,10.92,0,0,1-3.67-2.23,10,10,0,0,1-2.43-3.53,12.18,12.18,0,0,1-.88-4.75,12.39,12.39,0,0,1,.88-4.75,10.57,10.57,0,0,1,6-6,12.12,12.12,0,0,1,4.52-.83,11.4,11.4,0,0,1,4.16.74,9,9,0,0,1,3.31,2.2,10.24,10.24,0,0,1,2.18,3.64A15,15,0,0,1,334.05,396.64Zm-5.4-2.43a6.65,6.65,0,0,0-.29-2,4.41,4.41,0,0,0-2.52-2.81,5.58,5.58,0,0,0-2.27-.43,6.07,6.07,0,0,0-4.12,1.46,5.33,5.33,0,0,0-1.87,3.76Z" transform="translate(-189.65 -355.03)"/><path id="_Compound_Path_8" data-name="&lt;Compound Path&gt;" class="cls-2" d="M341.35,375.32h8.86l8.28,22.63h.13l8.19-22.63h8.91v31.85h-5.62V381.57H370l-9.67,25.59h-4l-9.54-25.59h-.09v25.59h-5.4Z" transform="translate(-189.65 -355.03)"/><path id="_Compound_Path_9" data-name="&lt;Compound Path&gt;" class="cls-2" d="M393.87,404.42h-.13a6,6,0,0,1-2.61,2.36,8.85,8.85,0,0,1-4.09.92,11.73,11.73,0,0,1-2.72-.34,8.09,8.09,0,0,1-2.61-1.12,6.52,6.52,0,0,1-2-2.07,6,6,0,0,1-.79-3.17,5.37,5.37,0,0,1,1.37-3.87,8.88,8.88,0,0,1,3.53-2.2,19.92,19.92,0,0,1,4.79-1q2.63-.25,5.15-.25v-.54a3.34,3.34,0,0,0-1.46-3,6.17,6.17,0,0,0-3.49-1,7.81,7.81,0,0,0-3.28.72,8.83,8.83,0,0,0-2.61,1.75l-2.79-3.28a12.19,12.19,0,0,1,4.25-2.56,14.5,14.5,0,0,1,4.88-.85,12,12,0,0,1,4.75.81,7.74,7.74,0,0,1,2.95,2.11,7.57,7.57,0,0,1,1.51,2.92,12.64,12.64,0,0,1,.43,3.24v13.13h-5Zm-.09-7.11h-1.22q-1.3,0-2.74.11a12,12,0,0,0-2.65.49,5.68,5.68,0,0,0-2,1.08,2.39,2.39,0,0,0-.81,1.91,2.3,2.3,0,0,0,.34,1.28,2.59,2.59,0,0,0,.88.83,3.92,3.92,0,0,0,1.21.45,6.87,6.87,0,0,0,1.35.13,5.63,5.63,0,0,0,4.23-1.48,5.57,5.57,0,0,0,1.44-4Z" transform="translate(-189.65 -355.03)"/><path id="_Compound_Path_10" data-name="&lt;Compound Path&gt;" class="cls-2" d="M418,391.56a4.76,4.76,0,0,0-1.89-1.51,5.84,5.84,0,0,0-2.56-.61,5.41,5.41,0,0,0-2.61.61,5.67,5.67,0,0,0-1.87,1.6,6.87,6.87,0,0,0-1.1,2.23,8.87,8.87,0,0,0-.36,2.5,8.41,8.41,0,0,0,.38,2.5,6.94,6.94,0,0,0,1.15,2.23,5.82,5.82,0,0,0,1.91,1.6,5.64,5.64,0,0,0,2.68.61,6.84,6.84,0,0,0,2.52-.49,4.81,4.81,0,0,0,2-1.44l3.37,3.42a8.94,8.94,0,0,1-3.44,2.23,12.74,12.74,0,0,1-4.52.79,13.31,13.31,0,0,1-4.52-.76,10.55,10.55,0,0,1-6.25-5.85,11.93,11.93,0,0,1-.92-4.81,11.7,11.7,0,0,1,.92-4.72,10.82,10.82,0,0,1,2.5-3.6,11.15,11.15,0,0,1,3.67-2.29,12.51,12.51,0,0,1,9.09.09,8.72,8.72,0,0,1,3.53,2.47Z" transform="translate(-189.65 -355.03)"/><polygon class="cls-2" points="70.27 20.39 70.27 13.66 49.28 0 28.29 13.66 28.29 20.39 49.28 6.67 70.27 20.39"/><polygon class="cls-2" points="64.51 8.18 64.51 0 58.75 0 58.75 4.43 64.51 8.18"/><path class="cls-3" d="M209.23,429.19h0l3.1-10.52h2l3.08,10.52h0l2.91-10.52h2l-3.88,13.21h-1.92l-3.21-10.62h0l-3.21,10.62h-1.92l-3.88-13.21h2Z" transform="translate(-189.65 -355.03)"/><path class="cls-3" d="M231,427.38v.3a2.4,2.4,0,0,1,0,.3h-7a2.62,2.62,0,0,0,.25,1,2.75,2.75,0,0,0,.63.85,2.93,2.93,0,0,0,2,.77,3,3,0,0,0,1.55-.39,3.15,3.15,0,0,0,1-1l1.23,1a4.41,4.41,0,0,1-1.67,1.38,5.36,5.36,0,0,1-4,.11,4.3,4.3,0,0,1-1.47-.94,4.38,4.38,0,0,1-1-1.46,4.94,4.94,0,0,1-.35-1.9,5.07,5.07,0,0,1,.35-1.89,4.34,4.34,0,0,1,1-1.48,4.42,4.42,0,0,1,1.46-1,5,5,0,0,1,3.58,0,3.65,3.65,0,0,1,1.35.91,4.13,4.13,0,0,1,.85,1.45A5.73,5.73,0,0,1,231,427.38Zm-1.79-.71a3.35,3.35,0,0,0-.18-1,2.24,2.24,0,0,0-.47-.79,2.19,2.19,0,0,0-.77-.53,2.71,2.71,0,0,0-1.07-.2,2.83,2.83,0,0,0-1.05.2,2.73,2.73,0,0,0-.86.53,2.78,2.78,0,0,0-.6.79,2.52,2.52,0,0,0-.27,1Z" transform="translate(-189.65 -355.03)"/><path class="cls-3" d="M239.9,423.29a3.06,3.06,0,0,1,1.75-.49,3.2,3.2,0,0,1,1.61.41,2.75,2.75,0,0,1,1.13,1.36,3.16,3.16,0,0,1,1.25-1.32,3.49,3.49,0,0,1,1.75-.46,3.44,3.44,0,0,1,1.47.29,3,3,0,0,1,1,.77,3.14,3.14,0,0,1,.61,1.14,4.85,4.85,0,0,1,.2,1.4v5.49h-1.75V427a5.44,5.44,0,0,0-.09-1,2.62,2.62,0,0,0-.32-.86,1.72,1.72,0,0,0-.6-.6,1.83,1.83,0,0,0-1-.22,2,2,0,0,0-1,.25,2.13,2.13,0,0,0-.7.65,2.74,2.74,0,0,0-.39.91,4.35,4.35,0,0,0-.12,1v4.78H243v-5.26a4.5,4.5,0,0,0-.09-1,1.94,1.94,0,0,0-.32-.74,1.58,1.58,0,0,0-.58-.49,2,2,0,0,0-.88-.18,2,2,0,0,0-1.61.79,3.26,3.26,0,0,0-.64,2.12v4.7h-1.75v-6.94q0-.35,0-.91t-.06-1h1.66q0,.34.06.76c0,.28,0,.51,0,.7h.06A3,3,0,0,1,239.9,423.29Z" transform="translate(-189.65 -355.03)"/><path class="cls-3" d="M258.7,426.15a1.76,1.76,0,0,0-.6-1.46,2.47,2.47,0,0,0-1.59-.48,3.48,3.48,0,0,0-1.41.29,3.56,3.56,0,0,0-1.11.74l-.93-1.12a4.71,4.71,0,0,1,1.6-1,5.71,5.71,0,0,1,2-.35,4.59,4.59,0,0,1,1.65.27,3.13,3.13,0,0,1,1.15.74,3,3,0,0,1,.67,1.1,4.07,4.07,0,0,1,.22,1.36v3.86q0,.45,0,.94a4.81,4.81,0,0,0,.1.81h-1.59a5.53,5.53,0,0,1-.15-1.27h-.06a3.4,3.4,0,0,1-1.22,1.1,3.66,3.66,0,0,1-1.74.39,4.56,4.56,0,0,1-1.09-.14,3.16,3.16,0,0,1-1-.46,2.58,2.58,0,0,1-.77-.84,2.5,2.5,0,0,1-.31-1.29,2.26,2.26,0,0,1,.54-1.6,3.42,3.42,0,0,1,1.42-.9,8,8,0,0,1,2-.4q1.1-.09,2.22-.09Zm-.43,1.51q-.65,0-1.35.06a6.26,6.26,0,0,0-1.27.22,2.39,2.39,0,0,0-.94.5,1.15,1.15,0,0,0-.37.9,1.24,1.24,0,0,0,.16.65,1.32,1.32,0,0,0,.42.43,1.68,1.68,0,0,0,.58.23,3.22,3.22,0,0,0,.65.07A2.41,2.41,0,0,0,258,430a2.67,2.67,0,0,0,.66-1.86v-.47Z" transform="translate(-189.65 -355.03)"/><path class="cls-3" d="M264.63,426.88h.06L268.4,423h2.35l-4.14,4,4.5,4.83h-2.43l-4-4.59h-.06v4.59h-1.75V417.77h1.75Z" transform="translate(-189.65 -355.03)"/><path class="cls-3" d="M280.14,427.38v.3a2.4,2.4,0,0,1,0,.3h-7a2.62,2.62,0,0,0,.25,1,2.75,2.75,0,0,0,.63.85,2.93,2.93,0,0,0,2,.77,3,3,0,0,0,1.55-.39,3.15,3.15,0,0,0,1-1l1.23,1a4.41,4.41,0,0,1-1.67,1.38,5.36,5.36,0,0,1-4,.11,4.3,4.3,0,0,1-1.47-.94,4.38,4.38,0,0,1-1-1.46,4.94,4.94,0,0,1-.35-1.9,5.07,5.07,0,0,1,.35-1.89,4.34,4.34,0,0,1,1-1.48,4.42,4.42,0,0,1,1.46-1,5,5,0,0,1,3.58,0A3.65,3.65,0,0,1,279,424a4.13,4.13,0,0,1,.85,1.45A5.73,5.73,0,0,1,280.14,427.38Zm-1.79-.71a3.35,3.35,0,0,0-.18-1,2.24,2.24,0,0,0-.47-.79,2.19,2.19,0,0,0-.77-.53,2.71,2.71,0,0,0-1.07-.2,2.83,2.83,0,0,0-1.05.2,2.73,2.73,0,0,0-.86.53,2.78,2.78,0,0,0-.6.79,2.52,2.52,0,0,0-.27,1Z" transform="translate(-189.65 -355.03)"/><path class="cls-3" d="M288.13,424.38a2.74,2.74,0,0,1,1.08-1.12,3.23,3.23,0,0,1,1.72-.47,3.44,3.44,0,0,1,1.47.29,3,3,0,0,1,1,.77A3.14,3.14,0,0,1,294,425a4.85,4.85,0,0,1,.2,1.4v5.49h-1.75V427a6.1,6.1,0,0,0-.08-1,2.49,2.49,0,0,0-.31-.86,1.7,1.7,0,0,0-.61-.6,2,2,0,0,0-1-.22,2.15,2.15,0,0,0-1.72.8,3.18,3.18,0,0,0-.67,2.12v4.69h-1.75V417.77h1.75v6.61Z" transform="translate(-189.65 -355.03)"/><path class="cls-3" d="M305.68,427.44a4.78,4.78,0,0,1-.36,1.88,4.48,4.48,0,0,1-1,1.48,4.54,4.54,0,0,1-1.52,1,5.31,5.31,0,0,1-3.77,0,4.43,4.43,0,0,1-1.51-1,4.55,4.55,0,0,1-1-1.48,4.78,4.78,0,0,1-.36-1.88,4.71,4.71,0,0,1,.36-1.88,4.42,4.42,0,0,1,2.51-2.43,5.31,5.31,0,0,1,3.77,0,4.62,4.62,0,0,1,1.52,1,4.4,4.4,0,0,1,1,1.46A4.71,4.71,0,0,1,305.68,427.44Zm-1.83,0a3.73,3.73,0,0,0-.2-1.21,3.06,3.06,0,0,0-.57-1,2.75,2.75,0,0,0-.93-.7,3.19,3.19,0,0,0-2.53,0,2.75,2.75,0,0,0-.93.7,3,3,0,0,0-.57,1,3.82,3.82,0,0,0,0,2.42,3.16,3.16,0,0,0,.57,1,2.7,2.7,0,0,0,.93.71,3.2,3.2,0,0,0,2.53,0,2.7,2.7,0,0,0,.93-.71,3.17,3.17,0,0,0,.57-1A3.73,3.73,0,0,0,303.86,427.45Z" transform="translate(-189.65 -355.03)"/><path class="cls-3" d="M310.43,423.29a3.06,3.06,0,0,1,1.75-.49,3.2,3.2,0,0,1,1.61.41,2.75,2.75,0,0,1,1.13,1.36,3.16,3.16,0,0,1,1.25-1.32,3.49,3.49,0,0,1,1.75-.46,3.44,3.44,0,0,1,1.47.29,3,3,0,0,1,1,.77A3.14,3.14,0,0,1,321,425a4.85,4.85,0,0,1,.2,1.4v5.49h-1.75V427a5.44,5.44,0,0,0-.09-1,2.62,2.62,0,0,0-.32-.86,1.72,1.72,0,0,0-.6-.6,1.83,1.83,0,0,0-1-.22,2,2,0,0,0-1,.25,2.13,2.13,0,0,0-.7.65,2.74,2.74,0,0,0-.39.91,4.35,4.35,0,0,0-.12,1v4.78h-1.75v-5.26a4.5,4.5,0,0,0-.09-1,1.94,1.94,0,0,0-.32-.74,1.58,1.58,0,0,0-.58-.49,2,2,0,0,0-.88-.18,2,2,0,0,0-1.61.79,3.26,3.26,0,0,0-.64,2.12v4.7h-1.75v-6.94q0-.35,0-.91t-.06-1h1.66q0,.34.06.76c0,.28,0,.51,0,.7h.06A3,3,0,0,1,310.43,423.29Z" transform="translate(-189.65 -355.03)"/><path class="cls-3" d="M332,427.38v.3a2.4,2.4,0,0,1,0,.3h-7a2.62,2.62,0,0,0,.25,1,2.75,2.75,0,0,0,.63.85,2.93,2.93,0,0,0,2,.77,3,3,0,0,0,1.55-.39,3.15,3.15,0,0,0,1-1l1.23,1a4.41,4.41,0,0,1-1.67,1.38,5.36,5.36,0,0,1-4,.11,4.3,4.3,0,0,1-1.47-.94,4.38,4.38,0,0,1-1-1.46,4.94,4.94,0,0,1-.35-1.9,5.07,5.07,0,0,1,.35-1.89,4.34,4.34,0,0,1,1-1.48,4.42,4.42,0,0,1,1.46-1,5,5,0,0,1,3.58,0,3.65,3.65,0,0,1,1.35.91,4.13,4.13,0,0,1,.85,1.45A5.73,5.73,0,0,1,332,427.38Zm-1.79-.71a3.35,3.35,0,0,0-.18-1,2.24,2.24,0,0,0-.47-.79,2.19,2.19,0,0,0-.77-.53,2.71,2.71,0,0,0-1.07-.2,2.83,2.83,0,0,0-1.05.2,2.73,2.73,0,0,0-.86.53,2.78,2.78,0,0,0-.6.79,2.52,2.52,0,0,0-.27,1Z" transform="translate(-189.65 -355.03)"/><path class="cls-3" d="M339.91,436.36h-1.75V423h1.72v1.38h.06a3.27,3.27,0,0,1,1.26-1.17,3.93,3.93,0,0,1,1.93-.46,4.44,4.44,0,0,1,1.8.35,4.15,4.15,0,0,1,1.4,1,4.45,4.45,0,0,1,.9,1.48,5.17,5.17,0,0,1,.32,1.82,5.24,5.24,0,0,1-.32,1.83,4.51,4.51,0,0,1-.89,1.49,4.13,4.13,0,0,1-1.4,1,4.49,4.49,0,0,1-1.84.36,4,4,0,0,1-1.79-.41,3.23,3.23,0,0,1-1.32-1.16h-.06Zm5.82-8.92a3.88,3.88,0,0,0-.19-1.19,3.06,3.06,0,0,0-.56-1,2.69,2.69,0,0,0-.92-.71,3,3,0,0,0-1.28-.26,2.82,2.82,0,0,0-1.22.26,2.88,2.88,0,0,0-.94.71,3.26,3.26,0,0,0-.61,1,3.54,3.54,0,0,0,0,2.43,3.14,3.14,0,0,0,.61,1,2.94,2.94,0,0,0,.94.7,2.82,2.82,0,0,0,1.22.26,2.87,2.87,0,0,0,1.28-.27,2.79,2.79,0,0,0,.92-.72,3,3,0,0,0,.56-1A3.87,3.87,0,0,0,345.73,427.44Z" transform="translate(-189.65 -355.03)"/><path class="cls-3" d="M358.47,427.44a4.78,4.78,0,0,1-.36,1.88,4.48,4.48,0,0,1-1,1.48,4.54,4.54,0,0,1-1.52,1,5.31,5.31,0,0,1-3.77,0,4.43,4.43,0,0,1-1.51-1,4.55,4.55,0,0,1-1-1.48,4.78,4.78,0,0,1-.36-1.88,4.71,4.71,0,0,1,.36-1.88,4.42,4.42,0,0,1,2.51-2.43,5.31,5.31,0,0,1,3.77,0,4.62,4.62,0,0,1,1.52,1,4.4,4.4,0,0,1,1,1.46A4.71,4.71,0,0,1,358.47,427.44Zm-1.83,0a3.73,3.73,0,0,0-.2-1.21,3.06,3.06,0,0,0-.57-1,2.75,2.75,0,0,0-.93-.7,3.19,3.19,0,0,0-2.53,0,2.75,2.75,0,0,0-.93.7,3,3,0,0,0-.57,1,3.82,3.82,0,0,0,0,2.42,3.16,3.16,0,0,0,.57,1,2.7,2.7,0,0,0,.93.71,3.2,3.2,0,0,0,2.53,0,2.7,2.7,0,0,0,.93-.71,3.17,3.17,0,0,0,.57-1A3.73,3.73,0,0,0,356.64,427.45Z" transform="translate(-189.65 -355.03)"/><path class="cls-3" d="M365.21,425.27a2.3,2.3,0,0,0-.84-.79,2.4,2.4,0,0,0-1.21-.31,2.81,2.81,0,0,0-.6.06,1.77,1.77,0,0,0-.53.21,1.14,1.14,0,0,0-.37.35,1,1,0,0,0-.14.53.89.89,0,0,0,.5.83,6.2,6.2,0,0,0,1.51.49,9.38,9.38,0,0,1,1.18.35,3.69,3.69,0,0,1,.94.51,2.22,2.22,0,0,1,.63.74,2.16,2.16,0,0,1,.22,1,2.71,2.71,0,0,1-.3,1.33,2.59,2.59,0,0,1-.79.89,3.25,3.25,0,0,1-1.13.49,5.69,5.69,0,0,1-1.31.15,5.18,5.18,0,0,1-2-.39,3.85,3.85,0,0,1-1.6-1.19l1.25-1.06a2.85,2.85,0,0,0,1,.88,2.74,2.74,0,0,0,1.37.35,3.08,3.08,0,0,0,.64-.06,1.85,1.85,0,0,0,.56-.21,1.15,1.15,0,0,0,.4-.39,1.16,1.16,0,0,0,.15-.62,1,1,0,0,0-.59-.91,7.9,7.9,0,0,0-1.73-.56q-.45-.11-.91-.27a3,3,0,0,1-.83-.44,2.2,2.2,0,0,1-.61-.7,2.1,2.1,0,0,1-.23-1,2.45,2.45,0,0,1,.29-1.22,2.52,2.52,0,0,1,.76-.84A3.33,3.33,0,0,1,362,423a4.8,4.8,0,0,1,1.23-.16,4.69,4.69,0,0,1,1.84.37,3,3,0,0,1,1.37,1.08Z" transform="translate(-189.65 -355.03)"/><path class="cls-3" d="M373,425.27a2.3,2.3,0,0,0-.84-.79,2.4,2.4,0,0,0-1.21-.31,2.81,2.81,0,0,0-.6.06,1.77,1.77,0,0,0-.53.21,1.14,1.14,0,0,0-.37.35,1,1,0,0,0-.14.53.89.89,0,0,0,.5.83,6.2,6.2,0,0,0,1.51.49,9.38,9.38,0,0,1,1.18.35,3.69,3.69,0,0,1,.94.51,2.22,2.22,0,0,1,.63.74,2.16,2.16,0,0,1,.22,1,2.71,2.71,0,0,1-.3,1.33,2.59,2.59,0,0,1-.79.89,3.25,3.25,0,0,1-1.13.49,5.69,5.69,0,0,1-1.31.15,5.18,5.18,0,0,1-2-.39,3.85,3.85,0,0,1-1.6-1.19l1.25-1.06a2.85,2.85,0,0,0,1,.88,2.74,2.74,0,0,0,1.37.35,3.08,3.08,0,0,0,.64-.06,1.85,1.85,0,0,0,.56-.21,1.15,1.15,0,0,0,.4-.39,1.16,1.16,0,0,0,.15-.62,1,1,0,0,0-.59-.91,7.9,7.9,0,0,0-1.73-.56q-.45-.11-.91-.27a3,3,0,0,1-.83-.44,2.2,2.2,0,0,1-.61-.7,2.1,2.1,0,0,1-.23-1,2.45,2.45,0,0,1,.29-1.22,2.52,2.52,0,0,1,.76-.84,3.33,3.33,0,0,1,1.06-.49,4.8,4.8,0,0,1,1.23-.16,4.69,4.69,0,0,1,1.84.37,3,3,0,0,1,1.37,1.08Z" transform="translate(-189.65 -355.03)"/><path class="cls-3" d="M378.12,419.84a1,1,0,0,1-.34.8,1.17,1.17,0,0,1-.82.32,1.12,1.12,0,0,1-.81-.33,1.07,1.07,0,0,1-.33-.79,1.09,1.09,0,0,1,.33-.81,1.12,1.12,0,0,1,.81-.33,1.15,1.15,0,0,1,.82.33A1.08,1.08,0,0,1,378.12,419.84Zm-.28,12h-1.75V423h1.75Z" transform="translate(-189.65 -355.03)"/><path class="cls-3" d="M382.17,430.48v1.4h-1.7V417.77h1.75v6.59h.06a3.7,3.7,0,0,1,1.25-1.11,3.77,3.77,0,0,1,1.9-.46,4.44,4.44,0,0,1,1.8.35,4.15,4.15,0,0,1,1.4,1,4.45,4.45,0,0,1,.9,1.48,5.17,5.17,0,0,1,.32,1.82,5.24,5.24,0,0,1-.32,1.83,4.51,4.51,0,0,1-.89,1.49,4.13,4.13,0,0,1-1.4,1,4.5,4.5,0,0,1-1.84.36,4,4,0,0,1-1.81-.42,3.39,3.39,0,0,1-1.38-1.22Zm5.88-3a3.85,3.85,0,0,0-.19-1.19,3,3,0,0,0-.56-1,2.68,2.68,0,0,0-.92-.71,3,3,0,0,0-1.28-.26,2.82,2.82,0,0,0-1.22.26,2.87,2.87,0,0,0-.94.71,3.25,3.25,0,0,0-.61,1,3.51,3.51,0,0,0,0,2.42,3.13,3.13,0,0,0,.61,1,2.93,2.93,0,0,0,.94.7,2.82,2.82,0,0,0,1.22.26,2.87,2.87,0,0,0,1.28-.27,2.78,2.78,0,0,0,.92-.72,3,3,0,0,0,.56-1A3.85,3.85,0,0,0,388,427.45Z" transform="translate(-189.65 -355.03)"/><path class="cls-3" d="M393.44,431.88h-1.75V417.77h1.75Z" transform="translate(-189.65 -355.03)"/><path class="cls-3" d="M404.11,427.38v.3a2.4,2.4,0,0,1,0,.3h-7a2.62,2.62,0,0,0,.25,1,2.75,2.75,0,0,0,.63.85,2.93,2.93,0,0,0,2,.77,3,3,0,0,0,1.55-.39,3.15,3.15,0,0,0,1-1l1.23,1a4.41,4.41,0,0,1-1.67,1.38,5.36,5.36,0,0,1-4,.11,4.3,4.3,0,0,1-1.47-.94,4.38,4.38,0,0,1-1-1.46,4.94,4.94,0,0,1-.35-1.9,5.07,5.07,0,0,1,.35-1.89,4.34,4.34,0,0,1,1-1.48,4.42,4.42,0,0,1,1.46-1,5,5,0,0,1,3.58,0A3.65,3.65,0,0,1,403,424a4.13,4.13,0,0,1,.85,1.45A5.73,5.73,0,0,1,404.11,427.38Zm-1.79-.71a3.35,3.35,0,0,0-.18-1,2.24,2.24,0,0,0-.47-.79,2.19,2.19,0,0,0-.77-.53,2.71,2.71,0,0,0-1.07-.2,2.83,2.83,0,0,0-1.05.2,2.73,2.73,0,0,0-.86.53,2.78,2.78,0,0,0-.6.79,2.52,2.52,0,0,0-.27,1Z" transform="translate(-189.65 -355.03)"/><path class="cls-3" d="M408.82,420a2.77,2.77,0,1,1-2.79,2.75A2.75,2.75,0,0,1,408.82,420Zm0,5.13a2.36,2.36,0,1,0-2.29-2.37A2.28,2.28,0,0,0,408.82,425.11Zm-1.08-4H409c.77,0,1.13.3,1.13.92a.83.83,0,0,1-.85.88l.92,1.43h-.54l-.88-1.39h-.53v1.39h-.5Zm.5,1.44h.53c.44,0,.85,0,.85-.53s-.37-.5-.71-.5h-.67Z" transform="translate(-189.65 -355.03)"/></svg>