<svg id="Layer_1" data-name="Layer 1" xmlns="http://www.w3.org/2000/svg" xmlns:xlink="http://www.w3.org/1999/xlink" viewBox="0 0 207 210"><defs><style>.cls-1{fill:none;}.cls-2{clip-path:url(#clip-path);}.cls-3{fill:#adcb36;}</style><clipPath id="clip-path" transform="translate(0 0)"><rect class="cls-1" width="207" height="210"/></clipPath></defs><title>Green House_large_207x210</title><g class="cls-2"><path class="cls-3" d="M30.19,35H176.81a4.35,4.35,0,0,0,4.31-4.37V26.25A4.39,4.39,0,0,0,178,22L104.71.17a4.36,4.36,0,0,0-2.43,0L29,22a4.39,4.39,0,0,0-3.09,4.2v4.38A4.34,4.34,0,0,0,30.19,35" transform="translate(0 0)"/><path class="cls-3" d="M155.25,70H138V52.5h17.25Zm0,35H138V87.5h17.25Zm0,35H138V122.5h17.25Zm0,35H138V157.5h17.25Zm-34.5,26.25H86.25V161.88a4.34,4.34,0,0,1,4.31-4.37h25.87a4.34,4.34,0,0,1,4.31,4.38ZM86.25,122.5h34.5V140H86.25Zm0-35h34.5V105H86.25Zm0-35h34.5V70H86.25ZM69,70H51.75V52.5H69Zm0,35H51.75V87.5H69Zm0,35H51.75V122.5H69Zm0,35H51.75V157.5H69Zm133.69,26.25H172.5V48.13a4.35,4.35,0,0,0-4.31-4.37H38.81a4.34,4.34,0,0,0-4.31,4.38V201.25H4.31a4.38,4.38,0,0,0,0,8.75H202.69a4.38,4.38,0,0,0,0-8.75" transform="translate(0 0)"/></g></svg>