<svg id="Layer_1" data-name="Layer 1" xmlns="http://www.w3.org/2000/svg" xmlns:xlink="http://www.w3.org/1999/xlink" viewBox="0 0 130 133"><defs><style>.cls-1{fill:none;}.cls-2{clip-path:url(#clip-path);}.cls-3{fill:#adcb36;}</style><clipPath id="clip-path" transform="translate(0 0)"><rect class="cls-1" width="130" height="133"/></clipPath></defs><title>Green House_small_130x133</title><g class="cls-2"><path class="cls-3" d="M19,22.17H111a2.74,2.74,0,0,0,2.71-2.77V16.63A2.78,2.78,0,0,0,111.8,14L65.76.11a2.7,2.7,0,0,0-1.53,0L18.19,14a2.77,2.77,0,0,0-1.94,2.66V19.4A2.74,2.74,0,0,0,19,22.17" transform="translate(0 0)"/><path class="cls-3" d="M97.5,44.33H86.67V33.25H97.5Zm0,22.17H86.67V55.42H97.5Zm0,22.17H86.67V77.58H97.5Zm0,22.17H86.67V99.75H97.5ZM75.83,127.46H54.17V102.52a2.74,2.74,0,0,1,2.71-2.77H73.12a2.74,2.74,0,0,1,2.71,2.77ZM54.17,77.58H75.83V88.67H54.17Zm0-22.17H75.83V66.5H54.17Zm0-22.17H75.83V44.33H54.17ZM43.33,44.33H32.5V33.25H43.33Zm0,22.17H32.5V55.42H43.33Zm0,22.17H32.5V77.58H43.33Zm0,22.17H32.5V99.75H43.33Zm84,16.63h-19v-97a2.74,2.74,0,0,0-2.71-2.77H24.37a2.74,2.74,0,0,0-2.71,2.77v97h-19a2.77,2.77,0,0,0,0,5.54H127.29a2.77,2.77,0,0,0,0-5.54" transform="translate(0 0)"/></g></svg>