<svg id="Layer_1" data-name="Layer 1" xmlns="http://www.w3.org/2000/svg" xmlns:xlink="http://www.w3.org/1999/xlink" viewBox="0 0 470 193"><defs><style>.cls-1{fill:none;}.cls-2{clip-path:url(#clip-path);}.cls-3{fill:#adcb36;}</style><clipPath id="clip-path" transform="translate(0)"><rect class="cls-1" width="470" height="193"/></clipPath></defs><title>Green Hand_470x193</title><g class="cls-2"><path class="cls-3" d="M70,0H10A9.87,9.87,0,0,0,0,9.77V166.16a9.71,9.71,0,0,0,10,9.64H70a9.72,9.72,0,0,0,10-9.64V9.77A9.88,9.88,0,0,0,70,0" transform="translate(0)"/><path class="cls-3" d="M467.08,81c-23.47-22.93-43.72-29.32-70.24-21.91L336.7,78.64C341.61,107.9,323.31,137,290,136.7H190a9.71,9.71,0,0,1-10-9.64,10.07,10.07,0,0,1,10-9.91H290c17.77.27,27.5-13.23,27.5-29.19,0-10.9-5.8-29.32-27.5-29.32H230a10.13,10.13,0,0,1-7.06-2.86c-9.19-9-37.07-36.23-82.94-36.23H110a9.87,9.87,0,0,0-10,9.77V136.84a9.75,9.75,0,0,0,6.84,9.24c31.21,10.17,55.63,18.86,75.22,25.83C220.62,185.61,242.2,193,261.44,193c22.94,0,42.55-10.52,83.53-33.4,27.14-15.17,64.26-35.91,119.51-62.9A9.67,9.67,0,0,0,467.08,81" transform="translate(0)"/></g></svg>