<svg id="Layer_1" data-name="Layer 1" xmlns="http://www.w3.org/2000/svg" xmlns:xlink="http://www.w3.org/1999/xlink" viewBox="0 0 108 95"><defs><style>.cls-1,.cls-3{fill:none;}.cls-2{clip-path:url(#clip-path);}.cls-3{stroke:#fdb913;stroke-linejoin:round;stroke-width:4.5px;}</style><clipPath id="clip-path" transform="translate(0 0)"><rect class="cls-1" width="108" height="95"/></clipPath></defs><title>Industry Partners_icon 4_108x95</title><g class="cls-2"><path class="cls-3" d="M65.25,13.56A11.25,11.25,0,1,1,54,2.25,11.28,11.28,0,0,1,65.25,13.56Zm36,4.53A6.75,6.75,0,1,1,94.5,11.3,6.77,6.77,0,0,1,101.25,18.09Zm-81,0A6.75,6.75,0,1,1,13.5,11.3,6.77,6.77,0,0,1,20.25,18.09Zm18,15.84h31.5V56.55a9.05,9.05,0,0,1-9,9.05V92.75H47.25V65.6a9.05,9.05,0,0,1-9-9.05Zm45,0V47.5c0,3.74.79,6.79,4.5,6.79V74.65h13.5V54.29c3.71,0,4.5-3.06,4.5-6.79V33.92Zm-81,0V47.5c0,3.74.79,6.79,4.5,6.79V74.65h13.5V54.29c3.71,0,4.5-3.06,4.5-6.79V33.92Z" transform="translate(0 0)"/></g></svg>