<svg id="Layer_1" data-name="Layer 1" xmlns="http://www.w3.org/2000/svg" xmlns:xlink="http://www.w3.org/1999/xlink" viewBox="0 0 160 145"><defs><style>.cls-1{fill:none;}.cls-2{clip-path:url(#clip-path);}.cls-3{fill:#f36c21;}</style><clipPath id="clip-path" transform="translate(0 0)"><rect class="cls-1" width="160" height="145"/></clipPath></defs><title>Orange House_160x145</title><g class="cls-2"><path class="cls-3" d="M120,113.21a3.44,3.44,0,0,1-3.33,3.54H83.33A3.44,3.44,0,0,1,80,113.21V92a3.51,3.51,0,0,1,3.33-3.58h33.33A3.51,3.51,0,0,1,120,92ZM73.34,134.39A3.44,3.44,0,0,1,70,137.92H36.67a3.44,3.44,0,0,1-3.33-3.54v0a3.5,3.5,0,0,1,3.33-3.58H70a3.51,3.51,0,0,1,3.33,3.58ZM40,84.91a3.51,3.51,0,0,1,3.33-3.58h20a3.51,3.51,0,0,1,3.33,3.58v35.38a3.44,3.44,0,0,1-3.33,3.54h-20A3.44,3.44,0,0,1,40,120.28ZM156.67,138H140V77.83a3.44,3.44,0,0,0-3.33-3.54H23.34A3.44,3.44,0,0,0,20,77.83V138H3.34A3.44,3.44,0,0,0,0,141.51,3.4,3.4,0,0,0,3.34,145H156.67a3.4,3.4,0,0,0,3.33-3.49,3.44,3.44,0,0,0-3.33-3.54" transform="translate(0 0)"/><path class="cls-3" d="M3.34,67.17H156.67a3.26,3.26,0,0,0,3.16-2.39,3.66,3.66,0,0,0-1.18-4L140,46.21V14.11a3.44,3.44,0,0,0-3.33-3.54h-20a3.44,3.44,0,0,0-3.33,3.54V25.29L82,.69a3.18,3.18,0,0,0-4,0L1.35,60.83a3.67,3.67,0,0,0-1.19,4,3.27,3.27,0,0,0,3.17,2.39" transform="translate(0 0)"/></g></svg>