<svg id="Layer_1" data-name="Layer 1" xmlns="http://www.w3.org/2000/svg" xmlns:xlink="http://www.w3.org/1999/xlink" viewBox="0 0 124 140"><defs><style>.cls-1{fill:none;}.cls-2{clip-path:url(#clip-path);}.cls-3{fill:#00a399;}.cls-4{fill:#fff;}</style><clipPath id="clip-path" transform="translate(0 0)"><rect class="cls-1" width="124" height="140"/></clipPath></defs><title>Teal House_124x140</title><g class="cls-2"><path class="cls-3" d="M123,14.33h0L109.21,1a3.5,3.5,0,0,0-2.43-1H17.22a3.5,3.5,0,0,0-2.44,1L1,14.32H1a3.61,3.61,0,0,0-1,2.35v120A3.39,3.39,0,0,0,3.44,140H48.22V107a3.39,3.39,0,0,1,3.44-3.34H72.33A3.39,3.39,0,0,1,75.78,107v33h44.78a3.39,3.39,0,0,0,3.44-3.34v-120a3.62,3.62,0,0,0-1-2.35" transform="translate(0 0)"/><path class="cls-4" d="M41.33,87.31a2.94,2.94,0,0,1-3,3H16.78a2.94,2.94,0,0,1-3-3v-14a2.94,2.94,0,0,1,3-3H38.33a2.94,2.94,0,0,1,3,3Z" transform="translate(0 0)"/><path class="cls-4" d="M41.33,53.94a2.94,2.94,0,0,1-3,3H16.78a2.94,2.94,0,0,1-3-3v-14a2.94,2.94,0,0,1,3-3H38.33a2.94,2.94,0,0,1,3,3Z" transform="translate(0 0)"/><path class="cls-4" d="M75.78,87.31a2.94,2.94,0,0,1-3,3H51.22a2.94,2.94,0,0,1-3-3v-14a2.94,2.94,0,0,1,3-3H72.78a2.94,2.94,0,0,1,3,3Z" transform="translate(0 0)"/><path class="cls-4" d="M75.78,53.94a2.94,2.94,0,0,1-3,3H51.22a2.94,2.94,0,0,1-3-3v-14a2.94,2.94,0,0,1,3-3H72.78a2.94,2.94,0,0,1,3,3Z" transform="translate(0 0)"/><path class="cls-4" d="M110.22,87.31a2.94,2.94,0,0,1-3,3H85.67a2.94,2.94,0,0,1-3-3v-14a2.94,2.94,0,0,1,3-3h21.56a2.94,2.94,0,0,1,3,3Z" transform="translate(0 0)"/><path class="cls-4" d="M110.22,53.94a2.94,2.94,0,0,1-3,3H85.67a2.94,2.94,0,0,1-3-3v-14a2.94,2.94,0,0,1,3-3h21.56a2.94,2.94,0,0,1,3,3Z" transform="translate(0 0)"/></g><polygon class="cls-4" points="11.76 13.12 18.65 6.45 105.35 6.45 112.24 13.12 11.76 13.12"/></svg>