<svg aria-hidden="true" width="75px" height="75px" xmlns="http://www.w3.org/2000/svg" viewBox="0 0 24 24"><style>.st0{fill:#447BBD;stroke:#FFFFFF;stroke-width:0.6229;stroke-linejoin:round;stroke-miterlimit:10;} .st1{fill:none;stroke:#FFFFFF;stroke-width:0.623;stroke-linecap:round;stroke-linejoin:round;stroke-miterlimit:10;}</style><g id="Outline_Icons"><circle class="st0" cx="12" cy="12" r="11.5"/><path class="st1" d="M5.3 18.7h13.4"/><path class="st1" d="M7 6h10v12.7H7z"/><path class="st1" d="M17.7 5.4l-5.7-2-5.7 2V6h11.4z"/><path class="st1" d="M11 15.4h2v3.3h-2z"/><path class="st1" d="M8.3 7.4h1.3v1.3H8.3z"/><path class="st1" d="M11 7.4h2v1.3h-2z"/><path class="st1" d="M14.3 7.4h1.3v1.3h-1.3z"/><path class="st1" d="M8.3 10h1.3v1.3H8.3z"/><path class="st1" d="M11 10h2v1.3h-2z"/><path class="st1" d="M14.3 10h1.3v1.3h-1.3z"/><path class="st1" d="M8.3 12.7h1.3V14H8.3z"/><path class="st1" d="M11 12.7h2V14h-2z"/><path class="st1" d="M14.3 12.7h1.3V14h-1.3z"/><path class="st1" d="M8.3 15.4h1.3v1.3H8.3z"/><path class="st1" d="M14.3 15.4h1.3v1.3h-1.3z"/></g></svg>