<svg aria-hidden="true" xmlns="http://www.w3.org/2000/svg" viewBox="0 0 24.25 24.25"><g stroke="#000" fill="none" stroke-width="1.25px" stroke-linejoin="round" stroke-linecap="round"><path class="cls-1" d="M19.5,8.8l4,2.8V22A1.54,1.54,0,0,1,22,23.5H2A1.54,1.54,0,0,1,.5,22V11.5l4-2.8" transform="translate(0.13 0.13)"/><polyline class="cls-1" points="3.63 20.63 8.63 16.63 15.63 16.63 20.63 20.63"/><line class="cls-1" x1="23.63" y1="11.63" x2="17.63" y2="15.63"/><line class="cls-1" x1="0.63" y1="11.63" x2="6.63" y2="15.63"/><polyline class="cls-1" points="19.63 14.32 19.63 0.63 4.63 0.63 4.63 14.32"/><circle class="cls-1" cx="12.13" cy="8.13" r="1.8"/><path class="cls-1" d="M14.5,11.7a4.38,4.38,0,0,1-2.5.8A4.5,4.5,0,1,1,16.5,8v.4a1.4,1.4,0,0,1-2.8,0V8" transform="translate(0.13 0.13)"/></g></svg>