<svg aria-hidden="true" width="75px" height="75px" xmlns="http://www.w3.org/2000/svg" viewBox="0 0 24 24"><style>.st0{fill:#447BBD;stroke:#FFFFFF;stroke-width:0.6229;stroke-linejoin:round;stroke-miterlimit:10;} .st1{fill:none;stroke:#FFFFFF;stroke-width:0.623;stroke-linejoin:round;stroke-miterlimit:10;}</style><g id="Outline_Icons"><circle class="st0" cx="12" cy="12" r="11.5"/><path class="st1" d="M13.5 18.7H5.3V5.3h13.4v9.9"/><path class="st1" d="M12.3 7.6c0-.6-.5-1.2-1.2-1.2S10 7 10 7.6v2.9h2.3V7.6z"/><path class="st1" d="M12.3 13.5c0-.6-.5-1.2-1.2-1.2s-1.1.5-1.1 1.2v2.9h2.3v-2.9z"/><path class="st1" d="M17.6 11.7c0-.6-.5-1.2-1.2-1.2h-.6c-.6 0-1.2.5-1.2 1.2v3.5h3v-3.5z"/><circle class="st1" cx="16.1" cy="7.9" r="1.2"/><path class="st1" d="M13.5 15.2h5.2v3.5h-5.2z"/><path class="st1" d="M13.5 16.4h5.2"/><path class="st1" d="M13.5 17.6h5.2"/><path class="st1" d="M13.5 5.3v9.9"/></g><path class="st1" d="M8.7 13.5c0-.6-.5-1.2-1.2-1.2s-1.1.5-1.1 1.2v2.9h2.3v-2.9z"/><path class="st1" d="M8.7 7.6c0-.6-.5-1.2-1.2-1.2s-1.1.5-1.1 1.2v2.9h2.3V7.6z"/></svg>