<svg width="75px" height="75px" xmlns="http://www.w3.org/2000/svg" viewBox="0 0 24.65 24.65"><defs><style>.cls-1{fill:#447bbd;stroke-width:0.65px;}.cls-1,.cls-2{stroke:#fff;stroke-linejoin:round;}.cls-2{fill:none;}.cls-2{stroke-width:0.61px;}</style></defs><title>icon_conventional</title><g id="Outline_Icons" data-name="Outline Icons"><circle class="cls-1" cx="12.32" cy="12.32" r="12"/><polyline class="cls-2" points="13.85 19.34 5.31 19.34 5.31 5.31 19.34 5.31 19.34 15.68"/><path class="cls-2" d="M8.65,7.43a1.22,1.22,0,0,0-2.44,0v3H8.65Z" transform="translate(0.32 0.32)"/><path class="cls-2" d="M12.3,7.43a1.22,1.22,0,0,0-2.44,0v3H12.3Z" transform="translate(0.32 0.32)"/><path class="cls-2" d="M8.65,13.52a1.22,1.22,0,1,0-2.44,0v3H8.65Z" transform="translate(0.32 0.32)"/><path class="cls-2" d="M12.3,13.52a1.22,1.22,0,1,0-2.44,0v3H12.3Z" transform="translate(0.32 0.32)"/><path class="cls-2" d="M17.79,11.7a1.22,1.22,0,0,0-1.22-1.22H16a1.22,1.22,0,0,0-1.22,1.22v3.66h3Z" transform="translate(0.32 0.32)"/><circle class="cls-2" cx="16.59" cy="8.06" r="1.22"/><rect class="cls-2" x="13.85" y="15.68" width="5.49" height="3.66"/><line class="cls-2" x1="13.85" y1="16.9" x2="19.34" y2="16.9"/><line class="cls-2" x1="13.85" y1="18.12" x2="19.34" y2="18.12"/><line class="cls-2" x1="13.85" y1="5.31" x2="13.85" y2="15.68"/></g></svg>