<svg aria-hidden="true" width="75px" height="75px" xmlns="http://www.w3.org/2000/svg" viewBox="0 0 24 24"><style>.st0{fill:#447BBD;stroke:#FFFFFF;stroke-width:0.6229;stroke-linejoin:round;stroke-miterlimit:10;} .st1{fill:none;stroke:#FFFFFF;stroke-width:0.6231;stroke-linecap:round;stroke-linejoin:round;stroke-miterlimit:10;}</style><g id="Outline_Icons"><circle class="st0" cx="12" cy="12" r="11.5"/><path class="st1" d="M6.1 5.4h11.8v14.5H6.1z"/><path class="st1" d="M11 17.2h2.1v2.7H11z"/><path class="st1" d="M11 13.7h2.1v2.1H11z"/><path class="st1" d="M14.4 13.7h2.1v2.1h-2.1z"/><path class="st1" d="M7.5 13.7h2.1v2.1H7.5z"/><path class="st1" d="M11 10.3h2.1v2.1H11z"/><path class="st1" d="M14.4 10.3h2.1v2.1h-2.1z"/><path class="st1" d="M7.5 10.3h2.1v2.1H7.5z"/><path class="st1" d="M11 6.8h2.1v2.1H11z"/><path class="st1" d="M14.4 6.8h2.1v2.1h-2.1z"/><path class="st1" d="M7.5 6.8h2.1v2.1H7.5z"/><path class="st1" d="M16.5 4h-9L6.1 5.4h11.8z"/></g></svg>