<svg width="75px" height="75px" xmlns="http://www.w3.org/2000/svg" viewBox="0 0 24.65 24.65"><defs><style>.cls-1{fill:#447bbd;}.cls-1,.cls-2,.cls-3,.cls-4,.cls-5{stroke:#fff;}.cls-1,.cls-2,.cls-3,.cls-5{stroke-linejoin:round;}.cls-1,.cls-2,.cls-3,.cls-4{stroke-width:0.65px;}.cls-2,.cls-3,.cls-5,.cls-6{fill:none;}.cls-2,.cls-5{stroke-linecap:round;}.cls-4{stroke-miterlimit:10;}.cls-5{stroke-width:0.6px;}</style></defs><circle class="cls-1" cx="12.32" cy="12.32" r="12"/><g id="Outline_Icons-2" data-name="Outline Icons"><path class="cls-2" d="M18.9,20.15s-.31-2.38-1.53-3.3-3.91,0-3.91-2.07V13.25c.31.92,2.07,1.53,3.3,0-1.84,0,0-9-4.83-6-4.83-3-3,6-4.83,6,1.23,1.53,3,.92,3.3,0v1.53c0,2.07-2.68,1.23-3.91,2.07s-1.53,3.3-1.53,3.3Z" transform="translate(.32 .32)"/><path class="cls-3" d="M16.16 16.64L13.55 20.47"/><path class="cls-3" d="M8.49 16.64L11.1 20.47"/><path class="cls-4" d="M10.77,16.24a.31.31,0,1,0,.31.31.28.28,0,0,0-.31-.31Z" transform="translate(.32 .32)"/><path class="cls-4" d="M12,16.55a.31.31,0,1,0,.31.31.33.33,0,0,0-.31-.31Z" transform="translate(.32 .32)"/><path class="cls-4" d="M13.23,16.24a.31.31,0,1,0,.31.31.33.33,0,0,0-.31-.31Z" transform="translate(.32 .32)"/><path class="cls-2" d="M10.47,13.25s-.92-.31-.61-2.45" transform="translate(.32 .32)"/><path class="cls-2" d="M10.16,9.88c0,.31-.31,1.23-.92,1.23" transform="translate(.32 .32)"/><path class="cls-2" d="M13.53,13.25s.92-.31.61-2.45" transform="translate(.32 .32)"/><path class="cls-2" d="M13.84,9.88c0,.31.31,1.23.92,1.23" transform="translate(.32 .32)"/></g><path class="cls-2" d="M3.13 9.74L12.32 3.77 21.52 9.74"/><path class="cls-5" d="M16.23 6.29L16.23 4.68 18.3 4.68 18.3 7.67 16.23 6.29"/><g><path class="cls-6" d="M2.79 2.79H21.869999999999997V21.869999999999997H2.79z"/></g></svg>