<svg aria-hidden="true" xmlns="http://www.w3.org/2000/svg" viewBox="0 0 24 24"><style>.st0{fill:none;stroke:#000;stroke-width:0.6872;stroke-linecap:round;stroke-linejoin:round;} .st1{fill:none;stroke:#000;stroke-width:0.6872;stroke-linejoin:round;}</style><g><path class="st0" d="M12.3 21H4.1V1.8h10.1l4.6 4.6v.9"/><path class="st0" d="M14.2 1.8v4.6h4.6"/><path class="st1" d="M20.6 16.9v6l-2.8-2.3-2.7 2.3v-6"/><circle class="st0" cx="17.8" cy="14.2" r="1.4"/><path class="st0" d="M21.2 14.2c.5-.6.5-1.4.2-2-.4-.7-1.1-1-1.8-.9-.3-.7-1-1.2-1.7-1.2-.8 0-1.5.5-1.7 1.2-.7-.1-1.5.2-1.8.9-.3.6-.3 1.4.2 2-.5.6-.5 1.4-.2 2 .4.7 1.1 1 1.8.9.3.7 1 1.2 1.7 1.2.8 0 1.5-.5 1.7-1.2.7.1 1.5-.2 1.8-.9.4-.7.3-1.5-.2-2z"/></g></svg>