<svg width="75px" height="75px" xmlns="http://www.w3.org/2000/svg" viewBox="0 0 24.65 24.65"><defs><style>.cls-1{fill:#447bbd;}.cls-1,.cls-2{stroke:#fff;stroke-linejoin:round;stroke-width:0.65px;}.cls-2,.cls-3{fill:none;}.cls-2{stroke-linecap:round;}</style></defs><g id="Outline_Icons" data-name="Outline Icons"><circle class="cls-1" cx="12.32" cy="12.32" r="12"/><path class="cls-2" d="M4.32 19.33L20.33 19.33"/><path class="cls-2" d="M7.11 6.11H17.55V19.330000000000002H7.11z"/><path class="cls-2" d="M18.24 5.41L12.32 3.32 6.41 5.41 6.41 6.11 18.24 6.11 18.24 5.41z"/><path class="cls-2" d="M11.28 15.85H13.37V19.33H11.28z"/><path class="cls-2" d="M8.5 7.5H9.89V8.89H8.5z"/><path class="cls-2" d="M11.28 7.5H13.37V8.89H11.28z"/><path class="cls-2" d="M14.76 7.5H16.15V8.89H14.76z"/><path class="cls-2" d="M8.5 10.28H9.89V11.67H8.5z"/><path class="cls-2" d="M11.28 10.28H13.37V11.67H11.28z"/><path class="cls-2" d="M14.76 10.28H16.15V11.67H14.76z"/><path class="cls-2" d="M8.5 13.06H9.89V14.450000000000001H8.5z"/><path class="cls-2" d="M11.28 13.06H13.37V14.450000000000001H11.28z"/><path class="cls-2" d="M14.76 13.06H16.15V14.450000000000001H14.76z"/><path class="cls-2" d="M8.5 15.85H9.89V17.24H8.5z"/><path class="cls-2" d="M14.76 15.85H16.15V17.24H14.76z"/></g></svg>