<svg aria-hidden="true" xmlns="http://www.w3.org/2000/svg" viewBox="0 0 24 24"><style>.st0{fill:none;stroke:#000;stroke-width:0.6752;stroke-linecap:round;stroke-linejoin:round;stroke-miterlimit:10;} .st1{fill:none;stroke:#000;stroke-width:0.6752;stroke-linejoin:round;stroke-miterlimit:10;}</style><g><g><path class="st0" d="M16.8 21.3l-3.1.9.9-3.1 6.7-6.8 2.3 2.3z"/><path class="st1" d="M19.5 14.1l2.3 2.3"/><path class="st0" d="M14.6 19.1l2.2 2.2"/><path class="st0" d="M12.1 22.2H3.6V3.3h1.8"/><path class="st0" d="M18 3.3h1.8v8.1"/><path class="st0" d="M13.5 3.3c0-1-.8-1.8-1.8-1.8s-1.8.8-1.8 1.8H7.2V6h9V3.3h-2.7z"/><path class="st0" d="M18 12.3V5.1h-1.8"/><path class="st0" d="M7.2 5.1H5.4v15.3h7.2"/><path class="st0" d="M8.1 9.6h7.2"/><path class="st0" d="M8.1 11.4h7.2"/><path class="st0" d="M8.1 13.2h7.2"/><path class="st0" d="M8.1 15h4"/></g></g></svg>