<svg width="75px" height="75px" xmlns="http://www.w3.org/2000/svg" viewBox="0 0 24.65 24.65"><defs><style>.cls-1{fill:#447bbd;stroke-width:0.65px;}.cls-1,.cls-2{stroke:#fff;stroke-linejoin:round;}.cls-2{fill:none;}.cls-2{stroke-linecap:round;stroke-width:0.65px;}</style></defs><circle class="cls-1" cx="12.32" cy="12.32" r="12"/><path class="cls-2" d="M6.18 5.46H18.46V20.63H6.18z"/><path class="cls-2" d="M11.24 17.74H13.41V20.63H11.24z"/><path class="cls-2" d="M11.24 14.13H13.41V16.3H11.24z"/><path class="cls-2" d="M14.85 14.13H17.02V16.3H14.85z"/><path class="cls-2" d="M7.63 14.13H9.8V16.3H7.63z"/><path class="cls-2" d="M11.24 10.52H13.41V12.69H11.24z"/><path class="cls-2" d="M14.85 10.52H17.02V12.69H14.85z"/><path class="cls-2" d="M7.63 10.52H9.8V12.69H7.63z"/><path class="cls-2" d="M11.24 6.91H13.41V9.08H11.24z"/><path class="cls-2" d="M14.85 6.91H17.02V9.08H14.85z"/><path class="cls-2" d="M7.63 6.91H9.8V9.08H7.63z"/><path class="cls-2" d="M17.02 4.02L7.63 4.02 6.18 5.46 18.46 5.46 17.02 4.02"/></svg>