<svg aria-hidden="true" xmlns="http://www.w3.org/2000/svg" viewBox="0 0 24 24"><defs><style>.cls-1,.cls-2,.cls-3{fill:none;}.cls-1,.cls-2{stroke:#fff;stroke-linejoin:round;stroke-width:0.75px;}.cls-1{stroke-linecap:round;}</style></defs><g data-name="Outline Icons"><path class="cls-1" d="M15.5 7.4c-1.2.8-1.8 2.3 0 3.5 1 2.5 2.9 1.8 4 .7s1.7-4.4.9-6.2c-1.8 1.4-3.4 1-4.9 2z"/><path class="cls-1" d="M12 3.9c1.3 1.5 2 3.5-1.1 4.9-1.4 3.2-3.6 2-5 .3s-2-6.2-.7-8.6c2.3 2 5.2 1.5 6.8 3.4z"/><path class="cls-1" d="M18 8.9c-3 1.5-4.5 5.5-4.5 5.5A21.77 21.77 0 0 0 7.2 4.1"/><path class="cls-2" d="M.5 14.5h4v8h-4z"/><path class="cls-1" d="M4.5 21c10.7 3.6 6.8 3.6 19-2.5-1.1-1.1-1.9-1.3-3-1L16.1 19"/><path class="cls-1" d="M4.5 15.5h3a6.48 6.48 0 0 1 4.5 2h3c1.6 0 1.6 2 0 2H9.5"/></g><path class="cls-3" d="M0 0h24v24H0z" data-name="invisible shape"/></svg>